<?xml version="1.0" encoding="utf-8"?>
<!-- Generator: Adobe Illustrator 18.1.1, SVG Export Plug-In . SVG Version: 6.00 Build 0)  -->
<svg version="1.1" id="Layer_1" xmlns="http://www.w3.org/2000/svg" xmlns:xlink="http://www.w3.org/1999/xlink" x="0px" y="0px"
	 width="22px" height="22px" viewBox="-8 10 22 22" enable-background="new -8 10 22 22" xml:space="preserve">
<g>
	<path fill="#FFFFFF" d="M-4,21.2v-0.4c0-0.7,0.4-1.1,1.1-1.1h4.5v-5.1c0-0.7,0.4-1.1,1.1-1.1h0.5c0.7,0,1.1,0.4,1.1,1.1v5.1h4.5
		c0.7,0,1.1,0.4,1.1,1.1v0.4c0,0.7-0.4,1.1-1.1,1.1H4.3v5c0,0.7-0.4,1.1-1.1,1.1H2.8c-0.7,0-1.1-0.4-1.1-1.1v-5h-4.5
		C-3.6,22.3-4,21.9-4,21.2z"/>
</g>
</svg>
