<?xml version="1.0" encoding="utf-8"?>
<!-- Generator: Adobe Illustrator 18.1.1, SVG Export Plug-In . SVG Version: 6.00 Build 0)  -->
<svg version="1.1" id="Layer_1" xmlns="http://www.w3.org/2000/svg" xmlns:xlink="http://www.w3.org/1999/xlink" x="0px" y="0px"
	 width="60px" height="45px" viewBox="0 0 60 45" enable-background="new 0 0 60 45" xml:space="preserve">
<g>
	<path fill="#333B48" d="M42.971,34.813c0,1.098-0.89,1.988-1.988,1.988H19.925c-1.098,0-1.988-0.89-1.988-1.988v-0.517
		c0-1.098,0.89-1.988,1.988-1.988h21.058c1.098,0,1.988,0.89,1.988,1.988V34.813L42.971,34.813z"/>
	<path fill="#333B48" d="M40.692,43.016c0,1.099-0.89,1.988-1.988,1.988H22.205c-1.098,0-1.988-0.89-1.988-1.988v-6.215h20.476
		V43.016L40.692,43.016z"/>
	<path fill="#333B48" d="M46.21,12.146L31.207,0.46c-0.332-0.332-0.773-0.485-1.208-0.462c-0.434-0.022-0.875,0.131-1.206,0.462
		L13.79,12.146c-0.622,0.622-0.622,1.629,0,2.251c0.622,0.622,1.629,0.622,2.251,0L30,3.524l13.96,10.873
		c0.622,0.622,1.629,0.622,2.251,0S46.832,12.767,46.21,12.146z"/>
	<g>
		<path fill="#333B48" d="M23.332,14.73c0-0.879-0.712-1.592-1.592-1.592s-1.592,0.712-1.592,1.592v14.14
			c0,0.879,0.712,1.592,1.592,1.592s1.592-0.712,1.592-1.592v-9.86h3.905v-3.183h-3.905V14.73z"/>
		<path fill="#333B48" d="M39.171,13.139c-0.879,0-1.591,0.712-1.591,1.592v1.098h-4.465v3.183h4.465v9.86
			c0,0.879,0.712,1.592,1.591,1.592c0.879,0,1.592-0.712,1.592-1.592V14.73C40.762,13.851,40.05,13.139,39.171,13.139z"/>
		<rect x="28.921" y="15.828" fill="#333B48" width="0.407" height="3.183"/>
		<rect x="31.013" y="15.828" fill="#333B48" width="0.417" height="3.183"/>
	</g>
	<path fill="#333B48" d="M28.064,20.119c-0.293,0-0.53-0.297-0.53-0.663v-4.548c0-0.366,0.237-0.663,0.53-0.663
		c0.293,0,0.53,0.297,0.53,0.663v4.548C28.593,19.822,28.356,20.119,28.064,20.119z"/>
	<path fill="#333B48" d="M30.165,22.331c-0.293,0-0.53-0.296-0.53-0.663v-6.76c0-0.366,0.238-0.663,0.53-0.663
		c0.293,0,0.53,0.297,0.53,0.663v6.76C30.695,22.034,30.457,22.331,30.165,22.331z"/>
	<path fill="#333B48" d="M32.265,20.119c-0.293,0-0.531-0.297-0.531-0.663v-4.548c0-0.366,0.238-0.663,0.531-0.663
		c0.293,0,0.531,0.297,0.531,0.663v4.548C32.796,19.822,32.558,20.119,32.265,20.119z"/>
	<g>
		<path fill="#333B48" d="M33.412,24.315h-0.336c0-1.606-1.306-2.912-2.912-2.912s-2.912,1.306-2.912,2.912h-0.336
			c0-1.79,1.457-3.247,3.248-3.247C31.956,21.068,33.412,22.525,33.412,24.315z"/>
		<polygon fill="#333B48" points="32.371,29.201 27.917,29.201 27.414,24.069 32.875,24.069 		"/>
	</g>
</g>
</svg>
