<?xml version="1.0" encoding="utf-8"?>
<!-- Generator: Adobe Illustrator 18.1.1, SVG Export Plug-In . SVG Version: 6.00 Build 0)  -->
<svg version="1.1" id="Layer_1" xmlns="http://www.w3.org/2000/svg" xmlns:xlink="http://www.w3.org/1999/xlink" x="0px" y="0px"
	 width="60px" height="45px" viewBox="0 0 60 45" enable-background="new 0 0 60 45" xml:space="preserve">
<g id="Your_Icon">
	<g>
		<g>
			<path fill="#333B48" d="M30,22.623c-0.815,0-1.475,0.66-1.475,1.475v15.738c0,1.633-1.192,2.213-2.213,2.213
				c-1.021,0-2.213-0.58-2.213-2.213c0-0.814,0.552-1.416,0.552-1.416l0,0c0.576-0.576,0.576-1.51,0-2.086
				c-0.576-0.576-1.51-0.576-2.086,0c-0.146,0.145-1.416,1.474-1.416,3.502c0,1.55,0.585,2.924,1.648,3.869
				C23.735,44.54,24.984,45,26.311,45c2.566,0,5.164-1.773,5.164-5.164V24.098C31.475,23.283,30.815,22.623,30,22.623z"/>
			<path fill="#333B48" d="M14.754,32.78l-0.228,0.571c-0.167,0.418-1.001,2.529-1.001,3.042c0,0.632,0.598,1.23,1.23,1.23
				c0.632,0,1.23-0.598,1.23-1.23c0-0.513-0.834-2.624-1.001-3.042L14.754,32.78z"/>
			<path fill="#333B48" d="M41.54,28.433l-0.228-0.571l-0.228,0.571c-0.167,0.418-1.001,2.529-1.001,3.042
				c0,0.632,0.598,1.23,1.23,1.23c0.632,0,1.23-0.598,1.23-1.23C42.541,30.962,41.707,28.851,41.54,28.433z"/>
			<path fill="#333B48" d="M50.656,23.607c0-5.05-2.037-10.02-5.586-13.636c-3.501-3.565-8.284-5.663-13.594-5.991V1.475
				C31.475,0.66,30.815,0,30,0s-1.475,0.66-1.475,1.475V3.98c-5.31,0.328-10.093,2.426-13.594,5.991
				c-3.55,3.616-5.586,8.586-5.586,13.636v0.492c0,0.815,0.66,1.475,1.475,1.475c0.815,0,1.475-0.66,1.475-1.475
				c0-1.288,1.059-2.336,2.361-2.336s2.361,1.048,2.361,2.336c0,0.815,0.66,1.475,1.475,1.475c0.815,0,1.475-0.66,1.475-1.475
				c0-1.288,1.059-2.336,2.361-2.336c1.301,0,2.361,1.048,2.361,2.336c0,0.815,0.66,1.475,1.475,1.475s1.475-0.66,1.475-1.475
				c0-1.288,1.059-2.336,2.361-2.336c1.302,0,2.361,1.048,2.361,2.336c0,0.815,0.66,1.475,1.475,1.475s1.475-0.66,1.475-1.475
				c0-1.288,1.059-2.336,2.361-2.336c1.302,0,2.361,1.048,2.361,2.336c0,0.815,0.66,1.475,1.475,1.475
				c0.815,0,1.475-0.66,1.475-1.475c0-1.288,1.059-2.336,2.361-2.336c1.302,0,2.36,1.048,2.36,2.336c0,0.815,0.66,1.475,1.475,1.475
				c0.815,0,1.475-0.66,1.475-1.475c0-0.108-0.003-0.215-0.01-0.322C50.652,23.721,50.656,23.664,50.656,23.607z M18.689,18.443
				c-0.632,0-1.23-0.598-1.23-1.23c0-0.513,0.834-2.624,1.001-3.042l0.228-0.57l0.228,0.571c0.167,0.418,1.001,2.529,1.001,3.042
				C19.918,17.845,19.32,18.443,18.689,18.443z M32.951,12.049c-0.632,0-1.23-0.598-1.23-1.23c0-0.513,0.834-2.624,1.001-3.042
				l0.228-0.57l0.228,0.571c0.167,0.418,1.001,2.529,1.001,3.042C34.18,11.452,33.583,12.049,32.951,12.049z M37.869,17.459
				c-0.632,0-1.23-0.598-1.23-1.23c0-0.513,0.834-2.624,1.001-3.042l0.228-0.57l0.228,0.571c0.167,0.418,1.001,2.529,1.001,3.042
				C39.098,16.861,38.501,17.459,37.869,17.459z"/>
		</g>
	</g>
</g>
</svg>
