<?xml version="1.0" encoding="utf-8"?>
<!-- Generator: Adobe Illustrator 18.1.1, SVG Export Plug-In . SVG Version: 6.00 Build 0)  -->
<svg version="1.1" id="Layer_1" xmlns="http://www.w3.org/2000/svg" xmlns:xlink="http://www.w3.org/1999/xlink" x="0px" y="0px"
	 width="60px" height="45px" viewBox="0 0 60 45" enable-background="new 0 0 60 45" xml:space="preserve">
<g>
	<g>
		<path fill="#333B48" d="M46.49,30.096c0,0.525-0.436,0.959-0.965,0.959H23.479c-0.529,0-0.963-0.435-0.963-0.959v-2.283
			c0-0.528,0.433-0.959,0.963-0.959h22.045c0.53,0,0.965,0.431,0.965,0.959L46.49,30.096L46.49,30.096z"/>
		<path fill="#333B48" d="M14.028,31.611c1.059,0,1.921,0.861,1.921,1.918c0,1.062-0.862,1.922-1.921,1.922
			c-1.061,0-1.923-0.86-1.923-1.922C12.104,32.472,12.966,31.611,14.028,31.611 M14.028,27.776c-3.185,0-5.769,2.577-5.769,5.758
			c0,3.181,2.583,5.759,5.769,5.759s5.767-2.577,5.767-5.759C19.792,30.353,17.213,27.776,14.028,27.776L14.028,27.776z"/>
		<path fill="#333B48" d="M54.238,31.611c1.059,0,1.921,0.861,1.921,1.918c0,1.062-0.862,1.922-1.921,1.922
			c-1.063,0-1.925-0.86-1.925-1.922C52.312,32.472,53.175,31.611,54.238,31.611 M54.238,27.776c-3.19,0-5.771,2.577-5.771,5.758
			c0,3.181,2.581,5.759,5.771,5.759c3.181,0,5.762-2.577,5.762-5.759C59.999,30.353,57.419,27.776,54.238,27.776L54.238,27.776z"/>
		<path fill="#333B48" d="M9.524,5.707c-0.529,0-1.181,0.349-1.45,0.778L6.128,17.973C5.861,18.406,0,19.825,0,20.324v12.018
			c0,0.499,0.433,0.906,0.96,0.906h2.984c0.529,0,1.146-0.318,1.333-0.839c0.339-0.942,1.019-7.054,8.188-7.054h6.167
			c0.529,0,0.963-0.407,0.963-0.906V6.613c0-0.499-0.433-0.906-0.963-0.906H9.524L9.524,5.707z"/>
		<path fill="#333B48" d="M25.336,6.726c1.515,0,2.745,3.966,2.745,8.855s-1.229,8.85-2.745,8.85c-1.515,0-2.745-3.961-2.745-8.85
			S23.821,6.726,25.336,6.726z M55.896,6.726c1.513,0,2.745,3.966,2.745,8.855s-1.232,8.85-2.745,8.85
			c-1.518,0-2.745-3.961-2.745-8.85S54.378,6.726,55.896,6.726z M25.336,6.726h30.559v17.704H25.336V6.726z"/>
	</g>
</g>
</svg>
